#!OML:ASF X:\für Bonn\!DataBase\2005_08_11_Bastian_Final\c3d\Bastian.ASF
:FULLY-SPECIFIED
:DEGREES
80
root -21.2482 17.5989 -0.0505666 83.1916 -81.7966 -90.4795
lowerback 3.9364 2.49384 8.55785
upperback 2.96254 3.52401 -1.51347
thorax 1.49981 1.91921 -6.45574
lowerneck -9.1294 -8.67253 -4.89597
upperneck -8.61373 -11.1155 12.1064
head -0.141939 -5.62944 4.46078
rclavicle -2.26118e-014 -2.38542e-014
rhumerus 56.8157 6.95426 -16.5289
rradius 36.3589
rwrist 2.10458
rhand -27.1074 10.0704
rfingers 7.12502
rthumb -0.523784 -19.9087
lclavicle -2.26118e-014 -2.38542e-014
lhumerus -13.084 -20.2343 82.5157
lradius 21.7458
lwrist 18.5865
lhand -13.556 -7.30215
lfingers 7.12502
lthumb 12.5572 22.3005
rfemur 10.6174 2.85752 26.1201
rtibia 30.1346
rfoot -11.2691 -1.52717
rtoes -23.385
lfemur -6.28469 3.81994 -12.3768
ltibia 27.8663
lfoot -5.76052 -10.8104
ltoes -4.57662
81
root -21.2697 17.5993 -0.0376894 83.1764 -81.7494 -90.4034
lowerback 3.9711 2.51598 8.63822
upperback 2.95899 3.55922 -1.55867
thorax 1.49181 1.93852 -6.55106
lowerneck -9.32845 -8.71326 -4.81024
upperneck -8.60293 -11.1771 12.1269
head -0.102884 -5.65858 4.43811
rclavicle -6.94255e-014 3.18055e-015
rhumerus 57.1624 6.96611 -15.3519
rradius 35.7637
rwrist 1.59679
rhand -27.1143 9.67633
rfingers 7.12502
rthumb -0.530435 -20.3028
lclavicle -6.94255e-014 3.18055e-015
lhumerus -13.1913 -20.5033 82.5554
lradius 22.169
lwrist 18.7571
lhand -13.4092 -7.43716
lfingers 7.12502
lthumb 12.6987 22.1567
rfemur 10.5939 2.78653 26.0883
rtibia 30.1612
rfoot -11.2272 -1.45526
rtoes -23.3879
lfemur -6.27643 3.78111 -12.3754
ltibia 27.8916
lfoot -5.85339 -10.7905
ltoes -4.42974
82
root -21.2895 17.5991 -0.0243728 83.2243 -81.7078 -90.4046
lowerback 4.03419 2.54391 8.71034
upperback 2.96031 3.60394 -1.59116
thorax 1.47343 1.96182 -6.62976
lowerneck -9.51168 -8.75875 -4.75826
upperneck -8.6179 -11.241 12.1461
head -0.0729059 -5.689 4.42264
rclavicle 3.37934e-015 -1.11319e-014
rhumerus 57.4785 7.0221 -14.0134
rradius 35.2421
rwrist 0.970156
rhand -27.0741 9.34103
rfingers 7.12502
rthumb -0.491644 -20.6381
lclavicle 3.37934e-015 -1.11319e-014
lhumerus -13.3128 -20.7224 82.6321
lradius 22.5305
lwrist 18.8621
lhand -13.2695 -7.66607
lfingers 7.12502
lthumb 12.8334 21.9194
rfemur 10.5803 2.69397 26.035
rtibia 30.1876
rfoot -11.1927 -1.34345
rtoes -23.4692
lfemur -6.26006 3.76192 -12.3836
ltibia 27.9127
lfoot -5.9531 -10.7746
ltoes -4.45277
83
root -21.3085 17.5992 -0.0124947 83.2382 -81.6812 -90.3893
lowerback 4.11656 2.56594 8.75982
upperback 2.97393 3.64115 -1.63699
thorax 1.45527 1.98141 -6.71051
lowerneck -9.72659 -8.79823 -4.70715
upperneck -8.6254 -11.2975 12.2043
head -0.0328787 -5.7152 4.41971
rclavicle 6.89783e-014 -1.43125e-014
rhumerus 57.7801 7.08671 -12.6925
rradius 34.7375
rwrist 0.446401
rhand -26.9841 9.00361
rfingers 7.12502
rthumb -0.404774 -20.9758
lclavicle 6.89783e-014 -1.43125e-014
lhumerus -13.4163 -20.9892 82.6797
lradius 22.8485
lwrist 19.0146
lhand -13.1005 -7.93488
lfingers 7.12502
lthumb 12.9963 21.6403
rfemur 10.5834 2.6441 25.9928
rtibia 30.2089
rfoot -11.1487 -1.28602
rtoes -23.5281
lfemur -6.22503 3.7563 -12.3997
ltibia 27.9354
lfoot -6.05917 -10.773
ltoes -4.44845
